<svg width="20" height="19" viewBox="0 0 20 19" fill="none" xmlns="http://www.w3.org/2000/svg">
<path d="M9.99992 0.833355C7.59447 0.808911 5.27773 1.74053 3.55886 3.42346C1.83999 5.10639 0.859635 7.40293 0.833252 9.80835C0.842521 11.7093 1.45404 13.5585 2.57997 15.0901C3.7059 16.6218 5.28831 17.7573 7.09992 18.3334C7.55825 18.4167 7.72492 18.1417 7.72492 17.9V16.375C5.17492 16.9167 4.63325 15.175 4.63325 15.175C4.4635 14.6283 4.10261 14.1609 3.61659 13.8584C2.78325 13.3084 3.68325 13.3167 3.68325 13.3167C3.97129 13.3552 4.24688 13.4584 4.48934 13.6186C4.73181 13.7788 4.93485 13.9918 5.08325 14.2417C5.34186 14.6901 5.7662 15.0191 6.26493 15.1578C6.76366 15.2965 7.29691 15.2339 7.74992 14.9834C7.79651 14.527 8.00316 14.1019 8.33325 13.7834C6.29992 13.5584 4.16658 12.7917 4.16658 9.35002C4.1484 8.45225 4.48012 7.58261 5.09159 6.92502C4.81311 6.15425 4.84599 5.30528 5.18325 4.55835C5.18325 4.55835 5.95825 4.31669 7.68325 5.47502C9.18483 5.07489 10.765 5.07489 12.2666 5.47502C14.0166 4.31669 14.7666 4.55835 14.7666 4.55835C15.1038 5.30528 15.1367 6.15425 14.8583 6.92502C15.4839 7.57056 15.8336 8.43437 15.8333 9.33335C15.8333 12.7834 13.6833 13.5417 11.6666 13.7667C11.8874 13.9811 12.058 14.2417 12.166 14.5299C12.2741 14.8181 12.317 15.1266 12.2916 15.4334V17.8917C12.2916 18.1834 12.4583 18.4167 12.9166 18.325C14.723 17.7454 16.3001 16.6097 17.4226 15.0801C18.545 13.5506 19.1554 11.7055 19.1666 9.80835C19.1402 7.40293 18.1598 5.10639 16.441 3.42346C14.7221 1.74053 12.4054 0.808911 9.99992 0.833355Z" fill="white"/>
</svg>
