<svg width="20" height="19" viewBox="0 0 20 19" fill="none" xmlns="http://www.w3.org/2000/svg">
<path d="M10.0002 0.833233C7.59471 0.808789 5.27798 1.74041 3.55911 3.42334C1.84023 5.10627 0.85988 7.40281 0.833496 9.80823C0.842765 11.7092 1.45428 13.5583 2.58021 15.09C3.70615 16.6217 5.28856 17.7571 7.10016 18.3332C7.5585 18.4166 7.72516 18.1416 7.72516 17.8999V16.3749C5.17516 16.9166 4.6335 15.1749 4.6335 15.1749C4.46374 14.6281 4.10286 14.1608 3.61683 13.8582C2.7835 13.3082 3.6835 13.3166 3.6835 13.3166C3.97154 13.3551 4.24712 13.4583 4.48959 13.6185C4.73205 13.7787 4.93509 13.9917 5.0835 14.2416C5.34211 14.69 5.76644 15.019 6.26517 15.1577C6.7639 15.2964 7.29716 15.2337 7.75016 14.9832C7.79675 14.5269 8.00341 14.1018 8.3335 13.7832C6.30016 13.5582 4.16683 12.7916 4.16683 9.3499C4.14865 8.45213 4.48036 7.58249 5.09183 6.9249C4.81335 6.15412 4.84623 5.30516 5.1835 4.55823C5.1835 4.55823 5.9585 4.31657 7.6835 5.4749C9.18507 5.07477 10.7653 5.07477 12.2668 5.4749C14.0168 4.31657 14.7668 4.55823 14.7668 4.55823C15.1041 5.30516 15.137 6.15412 14.8585 6.9249C15.4842 7.57044 15.8339 8.43424 15.8335 9.33323C15.8335 12.7832 13.6835 13.5416 11.6668 13.7666C11.8876 13.981 12.0582 14.2416 12.1663 14.5298C12.2744 14.818 12.3172 15.1265 12.2918 15.4332V17.8916C12.2918 18.1832 12.4585 18.4166 12.9168 18.3249C14.7233 17.7452 16.3004 16.6095 17.4228 15.08C18.5453 13.5505 19.1557 11.7054 19.1668 9.80823C19.1404 7.40281 18.1601 5.10627 16.4412 3.42334C14.7223 1.74041 12.4056 0.808789 10.0002 0.833233Z" fill="#D1D4DB"/>
</svg>
