<svg width="150" height="130" viewBox="0 0 150 130" fill="none" xmlns="http://www.w3.org/2000/svg">
<path d="M128.316 51.6776L133.48 110.912C133.922 115.732 130.898 119.969 126.84 120.334L13.3065 129.975C9.24907 130.34 5.56051 126.688 5.19165 121.868L0.0276639 62.6334C-0.0461074 61.4647 0.0276661 60.3692 0.24898 59.3466C1.06046 56.0599 3.49491 53.5035 6.5933 53.2844L120.127 43.6433C123.226 43.3512 126.103 45.4693 127.431 48.5369C127.947 49.4134 128.242 50.509 128.316 51.6776Z" fill="#01317A"/>
<path opacity="0.1" d="M128.316 51.6776L133.48 110.912C133.922 115.732 130.898 119.969 126.84 120.334L13.3065 129.975C9.24907 130.34 5.56051 126.688 5.19165 121.868L0.0276639 62.6334C-0.0461074 61.4647 0.0276661 60.3692 0.24898 59.3466C1.06046 56.0599 3.49491 53.5035 6.5933 53.2844L120.127 43.6433C123.226 43.3512 126.103 45.4693 127.431 48.5369C127.947 49.4134 128.242 50.509 128.316 51.6776Z" fill="black"/>
<path d="M142.472 32.137L149.923 92.905C150.513 97.8716 147.636 102.327 143.431 102.765L27.0202 116.716C22.889 117.227 18.9791 113.575 18.389 108.608L10.9381 47.8403C10.7905 46.6717 10.8643 45.5031 11.0856 44.4075C11.8233 40.9747 14.2578 38.3453 17.43 37.907L133.841 23.9567C137.013 23.5915 140.038 25.5635 141.513 28.7042C141.956 29.8728 142.325 30.9684 142.472 32.137Z" fill="#0152CC"/>
<path opacity="0.4" d="M141.513 28.8502L88.6933 64.0547C83.308 67.6336 76.8899 68.437 70.8406 66.1729L11.0859 44.4804C11.8236 41.0476 14.2581 38.4182 17.4303 37.98L133.841 24.0296C136.94 23.6644 139.964 25.7095 141.513 28.8502Z" fill="#111828"/>
<path d="M121.816 41.9971L106.619 52.0765L101.676 55.3632L88.6928 63.9817C83.455 67.4876 77.1845 68.291 71.2828 66.2459C71.1352 66.1729 70.9877 66.1729 70.8401 66.0998L63.5368 63.4705L47.1596 57.5543L39.4874 54.7789L30.7823 51.6382L30.1922 36.4462L28.7905 2.70242L95.4059 0L120.783 19.063L121.078 25.5635L121.816 41.9971Z" fill="#407BFF"/>
<path opacity="0.7" d="M121.816 41.9971L106.619 52.0765L101.676 55.3632L88.6928 63.9817C83.455 67.4876 77.1845 68.291 71.2828 66.2459C71.1352 66.1729 70.9877 66.1729 70.8401 66.0998L63.5368 63.4705L47.1596 57.5543L39.4874 54.7789L30.7823 51.6382L30.1922 36.4462L28.7905 2.70242L95.4059 0L120.783 19.063L121.078 25.5635L121.816 41.9971Z" fill="#FAFAFA"/>
<path opacity="0.1" d="M120.857 19.136L103.225 18.3326L95.4795 0.072998L120.857 19.136Z" fill="#263238"/>
<path d="M120.857 19.136L103.742 16.2145L95.4795 0.072998L120.857 19.136Z" fill="#407BFF"/>
</svg>
