<svg width="20" height="20" viewBox="0 0 20 20" fill="none" xmlns="http://www.w3.org/2000/svg">
<path d="M6.73325 16.6667C7.96549 16.7079 9.1935 16.5017 10.3447 16.0602C11.4959 15.6188 12.5469 14.9511 13.4357 14.0965C14.3244 13.242 15.0328 12.2179 15.5191 11.0849C16.0053 9.95189 16.2595 8.73291 16.2666 7.5C16.8313 6.80117 17.2506 5.99652 17.4999 5.13333C17.5185 5.06513 17.517 4.99301 17.4956 4.92564C17.4742 4.85828 17.4337 4.79854 17.3791 4.75363C17.3245 4.70873 17.2581 4.68056 17.1879 4.67252C17.1176 4.66448 17.0466 4.67692 16.9832 4.70833C16.6878 4.85054 16.3552 4.89648 16.0323 4.83967C15.7094 4.78286 15.4124 4.62616 15.1832 4.39166C14.8907 4.07131 14.5368 3.81294 14.1426 3.63185C13.7484 3.45077 13.3218 3.35065 12.8882 3.33744C12.4546 3.32423 12.0227 3.39819 11.6182 3.55494C11.2137 3.7117 10.8447 3.94805 10.5332 4.25C10.1067 4.66305 9.79435 5.1794 9.62642 5.74889C9.4585 6.31838 9.44075 6.92162 9.57491 7.5C6.78325 7.66666 4.86658 6.34166 3.33325 4.525C3.28718 4.47283 3.22692 4.43521 3.15983 4.41672C3.09274 4.39823 3.02172 4.39968 2.95543 4.42089C2.88915 4.44211 2.83048 4.48216 2.78658 4.53616C2.74269 4.59016 2.71547 4.65578 2.70825 4.725C2.41614 6.34535 2.62685 8.01629 3.31209 9.51339C3.99734 11.0105 5.12428 12.2621 6.54158 13.1C5.59128 14.1899 4.25675 14.8705 2.81658 15C2.73942 15.0128 2.6682 15.0494 2.61287 15.1047C2.55755 15.16 2.52089 15.2311 2.50803 15.3083C2.49517 15.3854 2.50676 15.4647 2.54117 15.5349C2.57557 15.6051 2.63108 15.6629 2.69991 15.7C3.95285 16.3261 5.3326 16.6568 6.73325 16.6667Z" fill="#D1D4DB"/>
</svg>
