<svg width="127" height="28" viewBox="0 0 127 28" fill="none" xmlns="http://www.w3.org/2000/svg">
<path d="M32.4764 6.76152H28.3527V27.5962H32.4764V6.76152Z" fill="#010101"/>
<path d="M22.2053 6.76152L12.7519 27.5938H16.8756L26.329 6.76152H22.2053Z" fill="#010101"/>
<path d="M10.2737 15.117L15.9373 27.5938H11.8136L6.1524 15.117H10.2737Z" fill="#010101"/>
<path d="M54.5048 9.33301C52.6898 7.3829 50.0422 6.35136 46.8542 6.35136C45.6047 6.35515 44.3754 6.6674 43.2756 7.26038C42.1758 7.85336 41.2394 8.70873 40.5495 9.75054V0H36.4258V27.5938H40.547V24.6048C41.2518 25.6322 42.1919 26.4763 43.289 27.0667C44.3861 27.6571 45.6085 27.9768 46.8542 27.999C49.9194 27.999 52.5031 26.9798 54.3353 25.0518C56.2412 23.0427 57.2605 20.5572 57.2826 16.9787C57.2605 13.6041 56.2977 11.2708 54.5048 9.33301ZM53.1147 16.9689C53.1147 21.3898 50.3934 24.2683 46.7854 24.2683C43.1775 24.2683 40.5053 21.3972 40.5053 16.9689C40.5053 12.7715 43.207 10.0723 46.7854 10.0723C50.4523 10.0698 53.1147 12.7101 53.1147 16.9763V16.9689Z" fill="#010101"/>
<path d="M72.6133 6.76152C71.8099 6.50944 70.9745 6.37379 70.1326 6.35873C67.5808 6.35873 65.417 7.6457 64.2971 9.77019V6.76152H60.1733V27.5938H64.2971V18.5506C64.2971 12.9017 67.1215 10.3474 69.7446 10.3474C70.3596 10.3641 70.966 10.4957 71.5326 10.7354L72.6133 6.76152Z" fill="#010101"/>
<path d="M89.4594 8.71409C87.8359 7.17414 85.4904 6.35873 82.6782 6.35873C78.5791 6.35873 75.3887 8.4169 74.1066 11.8701L77.6409 13.2308C78.1984 11.934 79.5615 9.94703 82.6782 9.94703C85.8564 9.94703 87.7549 11.6442 87.7549 14.4883V16.1044C86.1154 15.6043 84.4095 15.3559 82.6954 15.3675C77.636 15.3675 73.3624 17.3324 73.3624 21.6059C73.3624 26.0023 76.5013 27.9917 81.2218 27.9917C84.2256 27.9917 86.215 26.9896 87.6665 24.9339V27.5913H91.7877V14.3999C91.7877 12.1575 90.9625 10.1386 89.4594 8.71409ZM87.7549 19.6018C87.7549 22.1536 85.5666 24.4992 81.8923 24.4992C79.0678 24.4992 77.5426 23.4848 77.5426 21.5519C77.5426 20.0488 79.1833 18.7201 82.8821 18.7201C86.4114 18.725 87.7549 19.6018 87.7549 19.6018Z" fill="#010101"/>
<path d="M106.16 6.35873C103.137 6.35873 100.728 7.58676 99.2983 9.81686V6.76152H95.1746V27.5938H99.2983V17.1654C99.2983 12.6634 101.435 10.0698 105.136 10.0698C108.506 10.0698 110.213 11.8996 110.213 15.5051V27.584H114.337V14.9353C114.337 9.56388 111.281 6.35873 106.16 6.35873Z" fill="#010101"/>
<path d="M126.661 24.0693C126.585 24.0988 122.709 25.2311 122.709 22.1757V10.2884H126.661V6.75907H122.709V2.21045H118.681L118.664 6.74433H115.963V10.2909H118.652L118.603 22.4852C118.603 25.5946 120.077 27.999 123.537 27.999C124.593 28.0129 125.646 27.8765 126.664 27.5938L126.661 24.0693Z" fill="#010101"/>
<path d="M15.2988 9.52704L12.6683 12.1575C11.3369 10.827 9.53165 10.0796 7.64939 10.0796C5.76713 10.0796 3.96188 10.827 2.63044 12.1575L0 9.52704C1.00378 8.52117 2.19609 7.72315 3.50868 7.17866C4.82126 6.63417 6.22835 6.35391 7.64939 6.35391C9.07042 6.35391 10.4775 6.63417 11.7901 7.17866C13.1027 7.72315 14.295 8.52117 15.2988 9.52704V9.52704Z" fill="#010101"/>
</svg>
